<?xml version="1.0" standalone="no"?>
<!DOCTYPE svg PUBLIC "-//W3C//DTD SVG 20010904//EN"
 "http://www.w3.org/TR/2001/REC-SVG-20010904/DTD/svg10.dtd">
<svg version="1.0" xmlns="http://www.w3.org/2000/svg"
 width="554.000000pt" height="450.000000pt" viewBox="0 0 554.000000 450.000000"
 preserveAspectRatio="xMidYMid meet">
<metadata>
Created by potrace 1.16, written by Peter Selinger 2001-2019
</metadata>
<g transform="translate(0.000000,450.000000) scale(0.100000,-0.100000)"
fill="#000000" stroke="none">
<path d="M2219 3638 c-1 -72 3 -203 6 -207 2 -2 15 -1 29 3 21 5 25 13 28 49
4 57 32 59 36 2 2 -22 8 -43 14 -46 18 -12 250 -9 265 2 9 8 17 8 26 1 16 -14
115 -12 124 2 5 6 7 59 5 118 l-3 106 -64 0 c-57 0 -65 -3 -71 -21 l-7 -22 -8
23 c-9 24 -59 32 -59 10 0 -10 -2 -10 -9 0 -5 9 -24 12 -57 10 l-48 -3 3 -92
c1 -51 -1 -93 -6 -93 -25 1 -32 21 -35 100 l-3 85 -82 3 -83 2 -1 -32z"/>
<path d="M2774 3657 c-2 -7 -3 -60 -2 -118 l3 -104 75 -1 c41 -1 80 2 86 7 8
6 10 37 7 89 -5 76 -4 80 16 80 20 0 21 -5 21 -79 0 -85 12 -108 50 -96 18 6
20 14 20 90 0 73 2 83 19 88 25 6 41 -35 41 -107 0 -54 12 -76 41 -76 20 0 29
20 29 63 0 18 9 61 20 95 11 35 18 68 14 73 -8 14 -36 11 -56 -7 -16 -16 -18
-16 -24 0 -5 14 -24 16 -129 15 l-123 -1 -5 -26 c-3 -15 -3 -54 0 -88 6 -66
-4 -85 -31 -58 -12 11 -16 36 -16 95 0 78 0 79 -25 79 -14 0 -28 -6 -31 -13z"/>
<path d="M2663 3303 c-57 -23 -85 -92 -64 -156 16 -49 50 -76 102 -83 38 -5
52 -2 82 17 41 27 66 69 42 69 -8 0 -12 -6 -9 -13 3 -8 -3 -20 -12 -28 -21
-17 -104 -39 -104 -27 0 4 6 8 14 8 8 0 18 4 21 10 4 6 -2 7 -17 1 -13 -4 -29
-6 -37 -3 -9 3 -11 0 -6 -9 7 -12 5 -12 -6 -1 -12 11 -12 14 1 22 8 5 12 12 8
15 -3 3 -12 -1 -21 -9 -13 -14 -16 -14 -29 1 -9 11 -9 14 -1 9 7 -4 21 -2 32
4 15 7 23 6 34 -5 13 -13 16 -13 21 1 3 8 2 12 -4 9 -6 -3 -10 -2 -10 3 0 5 9
12 21 15 12 3 18 10 14 16 -8 14 3 33 16 26 5 -4 5 -13 -1 -25 -7 -13 -6 -21
5 -30 13 -11 14 -10 10 2 -4 9 1 18 10 22 12 4 15 13 11 30 -5 21 -3 23 16 18
12 -3 17 -7 10 -10 -6 -2 -12 -8 -12 -14 0 -5 9 -7 20 -3 16 5 19 3 13 -11 -4
-12 -3 -15 5 -10 29 17 0 102 -43 130 -35 23 -90 27 -132 9z"/>
<path d="M1956 3207 c-10 -7 -28 -45 -41 -84 l-22 -71 58 -70 c48 -58 70 -76
126 -102 82 -37 237 -115 278 -141 77 -48 235 -156 275 -189 25 -20 58 -45 73
-55 l28 -18 47 45 c55 52 243 192 322 239 30 18 115 63 189 101 74 38 144 76
154 86 25 22 67 110 67 141 0 40 -40 111 -69 123 -39 15 -200 5 -236 -16 -30
-16 -30 -16 38 -10 57 5 66 4 62 -9 -4 -10 2 -17 18 -21 17 -4 26 -15 31 -36
9 -45 30 -64 57 -50 15 9 24 9 32 1 18 -18 22 -13 23 25 1 33 -1 35 -13 18
-15 -20 -18 -7 -4 15 6 9 6 23 -1 35 l-10 21 19 -20 c22 -23 41 -81 23 -70 -5
3 -10 -1 -10 -10 0 -9 5 -13 10 -10 7 4 8 -3 4 -22 -9 -38 -8 -38 -50 -18 -37
18 -102 21 -158 9 -99 -22 -273 -127 -408 -247 -53 -47 -159 -127 -169 -127
-3 0 -12 7 -19 15 -9 11 -10 18 -1 28 6 8 7 18 3 22 -4 5 -1 5 6 1 15 -9 56
29 48 43 -3 5 -18 12 -33 16 -33 8 -63 37 -63 60 0 10 -5 13 -12 9 -7 -4 -8
-3 -4 4 4 6 14 8 23 5 10 -4 14 -2 10 4 -5 7 0 9 13 6 11 -3 17 -10 14 -15 -4
-6 2 -8 11 -6 21 4 33 28 14 28 -7 0 -19 7 -28 15 -9 9 -63 50 -121 92 -229
166 -357 223 -502 223 -54 0 -91 -5 -102 -13z"/>
<path d="M3554 3164 c3 -9 6 -28 6 -44 0 -15 6 -30 13 -33 8 -3 14 1 14 9 0 7
-3 11 -7 9 -4 -2 -7 10 -7 28 0 18 2 24 4 14 3 -11 11 -16 19 -13 7 3 20 -2
29 -10 8 -9 15 -12 15 -8 0 5 15 -8 34 -28 36 -38 52 -71 47 -100 -1 -10 2
-18 7 -18 5 0 8 -21 6 -47 -5 -67 -6 -73 -17 -73 -5 0 -6 7 -3 16 3 9 2 12 -5
9 -5 -4 -7 -15 -4 -26 4 -10 2 -19 -4 -19 -6 0 -8 -6 -5 -14 3 -8 1 -16 -4
-20 -5 -3 -8 5 -7 17 1 12 -4 30 -13 39 -13 16 -12 19 14 29 16 7 33 11 37 10
5 -1 6 3 2 9 -3 6 -11 7 -17 4 -6 -4 -8 2 -4 17 6 20 5 21 -4 6 -6 -9 -8 -23
-4 -30 3 -6 -6 2 -20 18 -14 17 -28 40 -32 52 -4 16 -13 21 -32 20 -24 -2 -27
2 -29 31 -1 17 3 30 8 26 15 -9 10 1 -9 17 -17 14 -18 13 -19 -24 -2 -45 -42
-118 -87 -159 -35 -32 -130 -89 -288 -172 -59 -31 -135 -74 -170 -96 -80 -51
-217 -162 -218 -175 0 -13 222 -235 235 -235 6 0 41 27 79 60 37 32 127 99
198 147 72 48 155 105 186 126 32 21 67 48 80 60 12 12 27 27 32 32 46 45 85
98 113 154 42 87 44 169 5 252 -23 51 -103 134 -128 134 -4 0 -12 3 -16 8 -14
14 -36 8 -30 -9z"/>
<path d="M1713 2525 c-84 -66 -171 -208 -192 -313 -13 -64 -14 -142 -2 -142 5
0 12 -11 15 -24 9 -37 82 -123 129 -153 23 -15 65 -35 92 -44 28 -10 49 -21
47 -26 -1 -4 13 -12 30 -17 l33 -8 -25 -12 c-31 -13 -51 -32 -43 -40 3 -3 -3
-9 -13 -12 -10 -4 -32 -16 -48 -28 -16 -11 -26 -14 -21 -7 5 9 3 12 -6 9 -8
-3 -13 -10 -12 -16 2 -8 -4 -8 -22 0 -19 8 -22 14 -13 20 10 6 9 8 -3 8 -22 0
-53 36 -43 51 4 8 3 10 -4 5 -11 -7 -17 6 -12 29 1 6 -4 5 -11 -2 -15 -14 -1
-37 62 -107 55 -60 133 -108 234 -141 68 -23 92 -27 160 -22 79 4 177 32 280
78 68 30 207 127 280 194 l60 55 -122 120 c-67 66 -131 120 -141 120 -10 0
-34 -16 -52 -35 -41 -43 -141 -111 -226 -154 -54 -28 -68 -31 -110 -25 -66 8
-102 31 -126 78 -57 111 0 255 129 328 32 18 53 36 51 45 -2 8 -28 28 -58 45
-49 26 -116 72 -130 87 -10 12 -120 81 -127 81 -5 0 -22 -11 -40 -25z"/>
<path d="M3640 2530 c-33 -27 -170 -117 -242 -161 -32 -19 -58 -39 -58 -44 0
-6 27 -25 59 -43 111 -61 157 -135 149 -243 -6 -85 -35 -118 -138 -157 -23 -8
-19 -11 35 -22 140 -30 287 -5 352 60 120 118 141 160 127 254 -12 78 -82 221
-139 282 -28 30 -105 94 -113 94 -4 0 -18 -9 -32 -20z"/>
<path d="M2940 1727 c0 -15 62 -64 126 -100 123 -69 188 -89 304 -94 95 -5
113 -3 185 22 87 29 157 69 196 112 26 29 18 25 -48 -26 -23 -18 -46 -30 -52
-26 -6 3 -11 1 -11 -5 0 -6 -4 -8 -10 -5 -5 3 -10 2 -10 -3 0 -13 -71 -41
-118 -47 -20 -3 -49 -7 -63 -10 -14 -3 -57 -1 -95 6 -38 7 -80 13 -92 14 -13
1 -27 7 -31 14 -5 7 -11 12 -15 12 -27 -4 -78 17 -89 36 -5 7 -12 11 -18 8
-12 -8 -69 26 -63 37 3 4 2 8 -3 9 -31 3 -48 10 -69 30 -13 12 -24 19 -24 16z"/>
<path d="M2630 1682 c-84 -84 -34 -232 78 -232 52 0 110 35 127 76 20 48 19
77 -4 122 -23 46 -55 62 -122 62 -42 0 -55 -5 -79 -28z"/>
<path d="M2246 1294 c-25 -24 -20 -71 10 -97 l26 -22 -24 -5 c-30 -7 -35 -41
-8 -65 25 -23 80 -22 97 1 11 16 13 16 19 1 4 -12 18 -17 50 -17 40 0 44 2 44
25 0 16 -6 25 -15 25 -8 0 -15 9 -15 20 0 11 7 20 15 20 8 0 15 9 15 20 0 11
-7 20 -15 20 -8 0 -15 9 -15 20 0 11 7 20 15 20 8 0 15 9 15 21 0 18 -5 20
-47 17 l-48 -3 0 -58 c0 -31 -1 -57 -2 -57 -1 0 -14 11 -28 24 -24 23 -24 24
-5 29 27 7 27 52 1 67 -29 15 -67 12 -85 -6z"/>
<path d="M2836 1294 c-12 -11 -16 -36 -16 -93 0 -89 14 -111 68 -111 37 0 66
35 60 72 -2 19 -9 23 -35 22 -32 -2 -33 -1 -32 35 1 23 3 28 6 14 3 -18 11
-23 34 -23 26 0 29 3 29 34 0 25 -7 39 -22 50 -29 20 -72 20 -92 0z"/>
<path d="M3076 1294 c-9 -8 -16 -11 -16 -5 0 6 -21 11 -50 11 l-51 0 3 -102 3
-103 43 -3 c31 -2 44 1 48 12 5 13 9 13 32 -4 72 -52 141 45 76 105 -26 24
-26 25 -5 25 17 0 21 6 21 30 0 46 -69 69 -104 34z"/>
<path d="M2472 1197 l3 -102 30 0 c27 0 31 4 36 40 l6 40 2 -43 c1 -39 3 -43
24 -40 21 3 22 7 19 76 -4 82 12 98 22 22 12 -88 20 -102 63 -98 l37 3 17 85
17 85 1 -88 1 -88 28 3 27 3 3 103 3 102 -66 0 -65 0 -1 -42 c-1 -24 -3 -34
-6 -23 -2 11 -6 30 -8 41 -4 20 -11 22 -100 23 l-96 1 3 -103z"/>
</g>
</svg>
